<mxfile host="app.diagrams.net" agent="Mozilla/5.0 (Windows NT 10.0; Win64; x64) AppleWebKit/537.36 (KHTML, like Gecko) Chrome/132.0.0.0 Safari/537.36 Edg/132.0.0.0" version="26.2.8" pages="2">
  <diagram name="Страница — 1" id="jteQRdNDFjJOF_otKPvm">
    <mxGraphModel dx="1420" dy="794" grid="1" gridSize="10" guides="1" tooltips="1" connect="1" arrows="1" fold="1" page="1" pageScale="1" pageWidth="827" pageHeight="1169" math="0" shadow="0">
      <root>
        <mxCell id="0" />
        <mxCell id="1" parent="0" />
        <mxCell id="p_7AJXdu5zyg5vBzcd6u-1" value="&lt;font style=&quot;font-size: 18px;&quot;&gt;&lt;b style=&quot;&quot;&gt;Обработка данных&lt;/b&gt;&lt;/font&gt;" style="rounded=0;whiteSpace=wrap;html=1;" vertex="1" parent="1">
          <mxGeometry x="110" y="180" width="130" height="90" as="geometry" />
        </mxCell>
        <mxCell id="p_7AJXdu5zyg5vBzcd6u-2" value="&lt;font style=&quot;font-size: 18px;&quot;&gt;&lt;b style=&quot;&quot;&gt;Фиксация информации о заказе&lt;/b&gt;&lt;/font&gt;" style="rounded=0;whiteSpace=wrap;html=1;" vertex="1" parent="1">
          <mxGeometry x="500" y="490" width="120" height="60" as="geometry" />
        </mxCell>
        <mxCell id="p_7AJXdu5zyg5vBzcd6u-3" value="&lt;font style=&quot;font-size: 18px;&quot;&gt;&lt;b style=&quot;&quot;&gt;Обновление информации о количестве товара&lt;/b&gt;&lt;/font&gt;" style="rounded=0;whiteSpace=wrap;html=1;" vertex="1" parent="1">
          <mxGeometry x="490" y="190" width="160" height="100" as="geometry" />
        </mxCell>
        <mxCell id="p_7AJXdu5zyg5vBzcd6u-4" value="" style="endArrow=classic;html=1;rounded=0;entryX=0.5;entryY=0;entryDx=0;entryDy=0;" edge="1" parent="1">
          <mxGeometry width="50" height="50" relative="1" as="geometry">
            <mxPoint x="140" y="100" as="sourcePoint" />
            <mxPoint x="140" y="180" as="targetPoint" />
          </mxGeometry>
        </mxCell>
        <mxCell id="p_7AJXdu5zyg5vBzcd6u-5" value="Меню кофейни" style="text;html=1;align=center;verticalAlign=middle;whiteSpace=wrap;rounded=0;" vertex="1" parent="1">
          <mxGeometry x="140" y="100" width="60" height="40" as="geometry" />
        </mxCell>
        <mxCell id="p_7AJXdu5zyg5vBzcd6u-6" value="" style="endArrow=classic;html=1;rounded=0;" edge="1" parent="1">
          <mxGeometry width="50" height="50" relative="1" as="geometry">
            <mxPoint x="20" y="210" as="sourcePoint" />
            <mxPoint x="120" y="210" as="targetPoint" />
          </mxGeometry>
        </mxCell>
        <mxCell id="p_7AJXdu5zyg5vBzcd6u-8" value="Информация о товаре" style="text;html=1;align=center;verticalAlign=middle;whiteSpace=wrap;rounded=0;" vertex="1" parent="1">
          <mxGeometry x="40" y="170" width="60" height="30" as="geometry" />
        </mxCell>
        <mxCell id="p_7AJXdu5zyg5vBzcd6u-9" value="" style="endArrow=classic;html=1;rounded=0;entryX=0;entryY=0.75;entryDx=0;entryDy=0;" edge="1" parent="1" target="p_7AJXdu5zyg5vBzcd6u-1">
          <mxGeometry width="50" height="50" relative="1" as="geometry">
            <mxPoint x="20" y="248" as="sourcePoint" />
            <mxPoint x="460" y="450" as="targetPoint" />
          </mxGeometry>
        </mxCell>
        <mxCell id="p_7AJXdu5zyg5vBzcd6u-10" value="Информация о количестве товара" style="text;html=1;align=center;verticalAlign=middle;whiteSpace=wrap;rounded=0;" vertex="1" parent="1">
          <mxGeometry x="30" y="250" width="70" height="50" as="geometry" />
        </mxCell>
        <mxCell id="p_7AJXdu5zyg5vBzcd6u-11" value="" style="endArrow=classic;html=1;rounded=0;entryX=0.177;entryY=1.022;entryDx=0;entryDy=0;entryPerimeter=0;" edge="1" parent="1" target="p_7AJXdu5zyg5vBzcd6u-1">
          <mxGeometry width="50" height="50" relative="1" as="geometry">
            <mxPoint x="130" y="680" as="sourcePoint" />
            <mxPoint x="460" y="370" as="targetPoint" />
          </mxGeometry>
        </mxCell>
        <mxCell id="p_7AJXdu5zyg5vBzcd6u-12" value="&lt;font style=&quot;font-size: 14px;&quot;&gt;Клиент&lt;/font&gt;" style="text;html=1;align=center;verticalAlign=middle;whiteSpace=wrap;rounded=0;" vertex="1" parent="1">
          <mxGeometry x="60" y="640" width="60" height="30" as="geometry" />
        </mxCell>
        <mxCell id="p_7AJXdu5zyg5vBzcd6u-13" value="&lt;span style=&quot;font-size: 14px;&quot;&gt;Сотрудник&lt;/span&gt;" style="text;html=1;align=center;verticalAlign=middle;whiteSpace=wrap;rounded=0;" vertex="1" parent="1">
          <mxGeometry x="230" y="640" width="60" height="30" as="geometry" />
        </mxCell>
        <mxCell id="p_7AJXdu5zyg5vBzcd6u-14" value="" style="endArrow=classic;html=1;rounded=0;entryX=0.838;entryY=1.022;entryDx=0;entryDy=0;entryPerimeter=0;" edge="1" parent="1" target="p_7AJXdu5zyg5vBzcd6u-1">
          <mxGeometry width="50" height="50" relative="1" as="geometry">
            <mxPoint x="220" y="680" as="sourcePoint" />
            <mxPoint x="460" y="370" as="targetPoint" />
          </mxGeometry>
        </mxCell>
        <mxCell id="p_7AJXdu5zyg5vBzcd6u-16" value="" style="endArrow=classic;html=1;rounded=0;entryX=0.5;entryY=1;entryDx=0;entryDy=0;" edge="1" parent="1" target="p_7AJXdu5zyg5vBzcd6u-2">
          <mxGeometry width="50" height="50" relative="1" as="geometry">
            <mxPoint x="220" y="640" as="sourcePoint" />
            <mxPoint x="460" y="370" as="targetPoint" />
            <Array as="points">
              <mxPoint x="560" y="640" />
            </Array>
          </mxGeometry>
        </mxCell>
        <mxCell id="p_7AJXdu5zyg5vBzcd6u-19" value="" style="endArrow=classic;html=1;rounded=0;" edge="1" parent="1" target="p_7AJXdu5zyg5vBzcd6u-3">
          <mxGeometry width="50" height="50" relative="1" as="geometry">
            <mxPoint x="240" y="240" as="sourcePoint" />
            <mxPoint x="440" y="370" as="targetPoint" />
            <Array as="points" />
          </mxGeometry>
        </mxCell>
        <mxCell id="p_7AJXdu5zyg5vBzcd6u-20" value="Данные о заказе" style="text;html=1;align=center;verticalAlign=middle;whiteSpace=wrap;rounded=0;" vertex="1" parent="1">
          <mxGeometry x="300" y="200" width="60" height="30" as="geometry" />
        </mxCell>
        <mxCell id="p_7AJXdu5zyg5vBzcd6u-21" value="" style="endArrow=classic;html=1;rounded=0;" edge="1" parent="1" target="p_7AJXdu5zyg5vBzcd6u-2">
          <mxGeometry width="50" height="50" relative="1" as="geometry">
            <mxPoint x="390" y="240" as="sourcePoint" />
            <mxPoint x="440" y="370" as="targetPoint" />
            <Array as="points">
              <mxPoint x="390" y="520" />
            </Array>
          </mxGeometry>
        </mxCell>
        <mxCell id="p_7AJXdu5zyg5vBzcd6u-23" value="" style="endArrow=classic;html=1;rounded=0;exitX=1;exitY=0.5;exitDx=0;exitDy=0;" edge="1" parent="1" source="p_7AJXdu5zyg5vBzcd6u-3">
          <mxGeometry width="50" height="50" relative="1" as="geometry">
            <mxPoint x="390" y="420" as="sourcePoint" />
            <mxPoint x="780" y="240" as="targetPoint" />
          </mxGeometry>
        </mxCell>
        <mxCell id="p_7AJXdu5zyg5vBzcd6u-24" value="" style="endArrow=classic;html=1;rounded=0;exitX=1;exitY=0.5;exitDx=0;exitDy=0;" edge="1" parent="1">
          <mxGeometry width="50" height="50" relative="1" as="geometry">
            <mxPoint x="620" y="519.5" as="sourcePoint" />
            <mxPoint x="750" y="519.5" as="targetPoint" />
          </mxGeometry>
        </mxCell>
        <mxCell id="p_7AJXdu5zyg5vBzcd6u-25" value="Актуальная информация о количестве товара" style="text;html=1;align=center;verticalAlign=middle;whiteSpace=wrap;rounded=0;" vertex="1" parent="1">
          <mxGeometry x="660" y="250" width="110" height="30" as="geometry" />
        </mxCell>
        <mxCell id="p_7AJXdu5zyg5vBzcd6u-26" value="Информация о заказе" style="text;html=1;align=center;verticalAlign=middle;whiteSpace=wrap;rounded=0;" vertex="1" parent="1">
          <mxGeometry x="630" y="490" width="120" height="30" as="geometry" />
        </mxCell>
        <mxCell id="p_7AJXdu5zyg5vBzcd6u-27" value="" style="endArrow=classic;html=1;rounded=0;exitX=1;exitY=0.75;exitDx=0;exitDy=0;entryX=0;entryY=0.167;entryDx=0;entryDy=0;entryPerimeter=0;" edge="1" parent="1" target="p_7AJXdu5zyg5vBzcd6u-2">
          <mxGeometry relative="1" as="geometry">
            <mxPoint x="240" y="260" as="sourcePoint" />
            <mxPoint x="460" y="402.5" as="targetPoint" />
            <Array as="points">
              <mxPoint x="330" y="260.5" />
              <mxPoint x="330" y="500" />
            </Array>
          </mxGeometry>
        </mxCell>
        <mxCell id="p_7AJXdu5zyg5vBzcd6u-28" value="Данные о товаре" style="edgeLabel;resizable=0;html=1;;align=center;verticalAlign=middle;" connectable="0" vertex="1" parent="p_7AJXdu5zyg5vBzcd6u-27">
          <mxGeometry relative="1" as="geometry" />
        </mxCell>
        <mxCell id="p_7AJXdu5zyg5vBzcd6u-29" value="" style="endArrow=classic;html=1;rounded=0;entryX=0.5;entryY=0;entryDx=0;entryDy=0;" edge="1" parent="1" target="p_7AJXdu5zyg5vBzcd6u-3">
          <mxGeometry width="50" height="50" relative="1" as="geometry">
            <mxPoint x="570" y="90" as="sourcePoint" />
            <mxPoint x="440" y="370" as="targetPoint" />
          </mxGeometry>
        </mxCell>
        <mxCell id="p_7AJXdu5zyg5vBzcd6u-30" value="Договор с правообладателем" style="text;html=1;align=center;verticalAlign=middle;whiteSpace=wrap;rounded=0;" vertex="1" parent="1">
          <mxGeometry x="570" y="100" width="110" height="70" as="geometry" />
        </mxCell>
      </root>
    </mxGraphModel>
  </diagram>
  <diagram id="iIpI9ciBSuCSqhV8pjRA" name="Страница — 2">
    <mxGraphModel dx="1420" dy="794" grid="1" gridSize="10" guides="1" tooltips="1" connect="1" arrows="1" fold="1" page="1" pageScale="1" pageWidth="827" pageHeight="1169" math="0" shadow="0">
      <root>
        <mxCell id="0" />
        <mxCell id="1" parent="0" />
        <mxCell id="CUFv5g71k6gUqwNFSjds-1" value="Обработка данных" style="text;strokeColor=none;fillColor=none;html=1;fontSize=24;fontStyle=1;verticalAlign=middle;align=center;" vertex="1" parent="1">
          <mxGeometry x="370" y="90" width="100" height="40" as="geometry" />
        </mxCell>
      </root>
    </mxGraphModel>
  </diagram>
</mxfile>
